<svg xmlns="http://www.w3.org/2000/svg" viewBox="0 0 1024 1024">
  <title>Calipic icon v1 - finished study B-teal small</title>
  <!-- Generated by scripts/brand/build-icon-v1.py. Study, not a production asset. -->
  <defs>
    <linearGradient id="field" x1="0" y1="0" x2="0" y2="1">
      <stop offset="0" stop-color="#15899A"/><stop offset="1" stop-color="#0A5863"/>
    </linearGradient>
    <radialGradient id="light" cx="0.3" cy="0.12" r="0.9">
      <stop offset="0" stop-color="#FFFFFF" stop-opacity="0.22"/><stop offset="0.6" stop-color="#FFFFFF" stop-opacity="0"/>
    </radialGradient>
    <linearGradient id="mark" gradientUnits="userSpaceOnUse" x1="0" y1="150" x2="0" y2="880">
      <stop offset="0" stop-color="#FFFFFF"/><stop offset="1" stop-color="#E4EEF1"/>
    </linearGradient>
    <filter id="grain" x="0" y="0" width="1" height="1" color-interpolation-filters="sRGB">
      <feTurbulence type="fractalNoise" baseFrequency="0.9" numOctaves="2" seed="7" result="n"/>
      <feColorMatrix in="n" type="matrix" values="0 0 0 0 1  0 0 0 0 1  0 0 0 0 1  0.33 0.33 0.33 0 -0.28"/>
    </filter>
    <filter id="shadow" x="-0.2" y="-0.2" width="1.4" height="1.4" color-interpolation-filters="sRGB">
      <feGaussianBlur in="SourceAlpha" stdDeviation="14"/>
      <feOffset dy="14"/>
      <feComponentTransfer><feFuncA type="linear" slope="0.30"/></feComponentTransfer>
    </filter>
    <mask id="cut" maskUnits="userSpaceOnUse" x="0" y="0" width="1024" height="1024">
      <rect width="1024" height="1024" fill="#FFFFFF"/>
    </mask>
    <g id="glyph" mask="url(#cut)">
      <g fill="none" stroke-width="76" stroke-linecap="round" stroke-linejoin="round">
      <path d="M 452 180 H 310 A 130 130 0 0 0 180 310 V 452"/>
      <path d="M 452 844 H 310 A 130 130 0 0 1 180 714 V 572"/>
      <path d="M 572 180 H 714 A 130 130 0 0 1 844 310"/>
      <path d="M 572 844 H 714 A 130 130 0 0 0 844 714"/>
      </g>
      <g stroke="none">
      <ellipse cx="526" cy="300" rx="50" ry="42"/>
      <path d="M 512 322 C 588 322 634 382 634 456 C 634 536 582 598 512 598 C 442 598 390 536 390 456 C 390 382 436 322 512 322 Z"/>
      <path d="M 464 570 C 464 630 454 652 416 664 C 352 682 308 712 294 760 H 730 C 716 712 672 682 608 664 C 570 652 560 630 560 570 Z"/>
      </g>
    </g>
  </defs>
  <rect width="1024" height="1024" fill="url(#field)"/>
  <rect width="1024" height="1024" fill="url(#light)"/>
  <rect width="1024" height="1024" filter="url(#grain)" opacity="0.10"/>
  <use href="#glyph" fill="#000000" stroke="#000000" filter="url(#shadow)"/>
  <use href="#glyph" fill="url(#mark)" stroke="url(#mark)"/>
</svg>
