<svg xmlns="http://www.w3.org/2000/svg" viewBox="0 0 1024 1024" role="img" aria-labelledby="title desc">
  <title id="title">Calipic icon v1 master (refinement candidate)</title>
  <desc id="desc">A portrait bust inside a rounded crop frame with small gaps at top, bottom and left and a wide opening on the right, so the frame reads as a capital C.</desc>
  <!-- Generated by scripts/brand/build-icon-v1.py. Do not hand-edit; change the Spec and rebuild. -->
  <rect x="28" y="28" width="968" height="968" rx="216" fill="#FFFFFF" stroke="#D9D9D9" stroke-width="4"/>
  <g fill="none" stroke="#111111" stroke-width="64" stroke-linecap="round" stroke-linejoin="round">
    <path d="M 465 180 H 310 A 130 130 0 0 0 180 310 V 465"/>
    <path d="M 465 844 H 310 A 130 130 0 0 1 180 714 V 559"/>
    <path d="M 559 180 H 714 A 130 130 0 0 1 844 310"/>
    <path d="M 559 844 H 714 A 130 130 0 0 0 844 714"/>
  </g>
  <g fill="#111111">
    <ellipse cx="526" cy="300" rx="50" ry="42"/>
    <path d="M 512 322 C 588 322 634 382 634 456 C 634 536 582 598 512 598 C 442 598 390 536 390 456 C 390 382 436 322 512 322 Z"/>
    <path d="M 464 570 C 464 630 454 652 416 664 C 352 682 308 712 294 760 H 730 C 716 712 672 682 608 664 C 570 652 560 630 560 570 Z"/>
    <path d="M 396 440 C 366 500 366 580 394 640 C 400 652 408 660 416 664 C 412 620 412 560 428 510 Z"/>
  </g>
  <path d="M 584 336 C 582 404 542 436 494 466 C 446 496 422 536 426 586 C 428 612 424 636 415 656" fill="none" stroke="#FFFFFF" stroke-width="22" stroke-linecap="round"/>
</svg>
