<svg xmlns="http://www.w3.org/2000/svg" viewBox="0 0 1024 1024">
  <title>Calipic icon v2 - finished study bear-small</title>
  <!-- Generated by scripts/brand/build-icon-v2.py. Study, not a production asset. -->
  <defs>
    <linearGradient id="field" x1="0" y1="0" x2="0" y2="1">
      <stop offset="0" stop-color="#15899A"/><stop offset="1" stop-color="#0A5863"/>
    </linearGradient>
    <radialGradient id="light" cx="0.3" cy="0.12" r="0.9">
      <stop offset="0" stop-color="#FFFFFF" stop-opacity="0.22"/><stop offset="0.6" stop-color="#FFFFFF" stop-opacity="0"/>
    </radialGradient>
    <linearGradient id="mark" gradientUnits="userSpaceOnUse" x1="0" y1="150" x2="0" y2="880">
      <stop offset="0" stop-color="#FFFFFF"/><stop offset="1" stop-color="#E4EEF1"/>
    </linearGradient>
    <filter id="grain" x="0" y="0" width="1" height="1" color-interpolation-filters="sRGB">
      <feTurbulence type="fractalNoise" baseFrequency="0.9" numOctaves="2" seed="7" result="n"/>
      <feColorMatrix in="n" type="matrix" values="0 0 0 0 1  0 0 0 0 1  0 0 0 0 1  0.33 0.33 0.33 0 -0.28"/>
    </filter>
    <filter id="shadow" x="-0.2" y="-0.2" width="1.4" height="1.4" color-interpolation-filters="sRGB">
      <feGaussianBlur in="SourceAlpha" stdDeviation="14"/>
      <feOffset dy="14"/>
      <feComponentTransfer><feFuncA type="linear" slope="0.30"/></feComponentTransfer>
    </filter>
    <mask id="cut" maskUnits="userSpaceOnUse" x="0" y="0" width="1024" height="1024">
      <rect width="1024" height="1024" fill="#FFFFFF"/>
    </mask>
    <g id="glyph" mask="url(#cut)">
      <g fill="none" stroke-width="82" stroke-linecap="round" stroke-linejoin="round">
      <path d="M 463 180 H 324 A 130 130 0 0 0 194 310 V 449"/>
      <path d="M 463 844 H 324 A 130 130 0 0 1 194 714 V 575"/>
      <path d="M 589 180 H 728 A 130 130 0 0 1 830.44 229.96"/>
      <path d="M 589 844 H 728 A 130 130 0 0 0 830.44 794.04"/>
      </g>
      <g stroke="none">
      <path d="M 472 596 C 472 640 460 664 426 676 C 350 694 308 716 294 760 H 758 C 744 716 702 694 626 676 C 592 664 580 640 580 596 Z"/>
      <circle cx="526" cy="476" r="140"/>
      <circle cx="418" cy="352" r="52"/>
      <circle cx="634" cy="352" r="52"/>
      </g>
    </g>
  </defs>
  <rect width="1024" height="1024" fill="url(#field)"/>
  <rect width="1024" height="1024" fill="url(#light)"/>
  <rect width="1024" height="1024" filter="url(#grain)" opacity="0.10"/>
  <use href="#glyph" fill="#000000" stroke="#000000" filter="url(#shadow)"/>
  <use href="#glyph" fill="url(#mark)" stroke="url(#mark)"/>
</svg>
