<svg xmlns="http://www.w3.org/2000/svg" viewBox="0 0 1024 1024" role="img" aria-labelledby="title desc">
  <title id="title">Calipic icon v2 - bear-small</title>
  <desc id="desc">A portrait bust inside a rounded crop frame with small gaps at top, bottom and left and a wide opening on the right, so the frame reads as a capital C.</desc>
  <!-- Generated by scripts/brand/build-icon-v2.py. Do not hand-edit; change the Spec and rebuild. -->
  <rect x="28" y="28" width="968" height="968" rx="216" fill="#FFFFFF" stroke="#D9D9D9" stroke-width="4"/>
  <g fill="none" stroke="#111111" stroke-width="82" stroke-linecap="round" stroke-linejoin="round">
    <path d="M 463 180 H 324 A 130 130 0 0 0 194 310 V 449"/>
    <path d="M 463 844 H 324 A 130 130 0 0 1 194 714 V 575"/>
    <path d="M 589 180 H 728 A 130 130 0 0 1 830.44 229.96"/>
    <path d="M 589 844 H 728 A 130 130 0 0 0 830.44 794.04"/>
  </g>
  <g fill="#111111">
    <path d="M 340 760 C 340 660 411 590 526 590 C 641 590 712 660 712 760 Z"/>
    <circle cx="526" cy="476" r="140"/>
    <circle cx="418" cy="352" r="52"/>
    <circle cx="634" cy="352" r="52"/>
  </g>
  <circle fill="#FFFFFF" stroke="none" cx="474" cy="448" r="15"/>
  <circle fill="#FFFFFF" stroke="none" cx="578" cy="448" r="15"/>
  <ellipse fill="#FFFFFF" stroke="none" cx="526" cy="512" rx="26" ry="17"/>
</svg>
